<svg width="50" height="50" viewBox="0 0 50 50" fill="none" xmlns="http://www.w3.org/2000/svg">
<g clip-path="url(#clip0_134_2)">
<path d="M50 16.6663V29.1663H35.4167C35.42 31.928 36.5185 34.5756 38.4713 36.5284C40.4241 38.4812 43.0717 39.5797 45.8333 39.583V45.833C41.4146 45.828 37.1782 44.0705 34.0537 40.946C30.9292 37.8214 29.1716 33.5851 29.1667 29.1663V8.33301H41.6667C43.8768 8.33301 45.9964 9.21098 47.5592 10.7738C49.122 12.3366 50 14.4562 50 16.6663Z" fill="#FFC700"/>
<path d="M12.5002 8.33301C14.7103 8.33301 16.8299 9.21098 18.3927 10.7738C19.9555 12.3366 20.8335 14.4562 20.8335 16.6663V29.1663H6.25016C6.25347 31.928 7.352 34.5756 9.30478 36.5284C11.2576 38.4812 13.9052 39.5797 16.6668 39.583V45.833C12.2481 45.828 8.01173 44.0705 4.8872 40.946C1.76267 37.8214 0.0051239 33.5851 0.000161171 29.1663V8.33301H12.5002Z" fill="#FFC700"/>
</g>
<defs>
<clipPath id="clip0_134_2">
<rect width="50" height="50" fill="white" transform="matrix(-1 0 0 1 50 0)"/>
</clipPath>
</defs>
</svg>
